<svg id="Layer_1" data-name="Layer 1" xmlns="http://www.w3.org/2000/svg" viewBox="0 0 754.43 278.73"><defs><style>.cls-1{fill:#15305d;}.cls-2{fill:#29abe2;}</style></defs><path class="cls-1" d="M229.91,62.38v-.61h79.43V87.23h-.77c-.2-.21-1.48-1.43-3.83-3.68S300,79.1,297.53,77a44.53,44.53,0,0,0-9-6,22,22,0,0,0-10-2.76h-20.7v44.62h8.74a50.69,50.69,0,0,0,12.19-1.61,83.54,83.54,0,0,0,11.73-3.75l5.37-2h.61v20.4h-.61l-5.37-2.15a100.08,100.08,0,0,0-11.73-3.6,50.69,50.69,0,0,0-12.19-1.61h-8.74v47.23H279a22,22,0,0,0,10-2.76,45,45,0,0,0,9.05-6q3.69-3.23,7.21-6.6c2.35-2.25,3.63-3.47,3.83-3.68h.77l-.15,19,.15,6.44H229.91v-.62l.61-2.14c.41-1.33.77-2.69,1.08-4.07s.66-3,1.07-5,.74-4,1-6.21a55.21,55.21,0,0,0,.38-6.21V86a55.21,55.21,0,0,0-.38-6.21q-.39-3.3-1-6.21t-1.07-5c-.31-1.38-.67-2.74-1.08-4.07Z"/><path class="cls-1" d="M317.62,133.53q0-19,9-29.28T348.75,94q14.56,0,22.23,11.66V84.47a39.94,39.94,0,0,0-.84-7.75,55.5,55.5,0,0,0-1.77-6.9c-.61-1.79-1.28-3.65-2-5.59L365,60.85l28.37-3.22V148q0,7.67,4,23.61v.62H376.81q-.31-.62-2.23-4.6a32.57,32.57,0,0,1-2.53-6.75q-8.73,12.88-23.46,12.88-12.57,0-21.77-10.58T317.62,133.53Zm28.21,20.25q3.84,8.43,12.58,8.43,6.29,0,12.88-5.67a34.27,34.27,0,0,1-.31-4.3V111.91q-6-5.2-12.27-5.21a13.68,13.68,0,0,0-12.65,7.36q-4.21,7.36-4.21,19.17Q341.85,145.5,345.83,153.78Z"/><path class="cls-1" d="M432.62,94.89v49.84q0,7.52,3.68,11a13.17,13.17,0,0,0,9.51,3.53q6.58,0,13.95-4.6c-.2-2.25-.31-3.84-.31-4.76V119.12a55.48,55.48,0,0,0-.61-7.82q-.61-4.29-1.3-7.21t-1.38-5.59a29,29,0,0,1-.69-3v-.62h26.22V148a55.21,55.21,0,0,0,.38,6.21q.39,3.3,1,6.21t1.07,5c.31,1.38.67,2.74,1.08,4.07l.61,2.14v.62H464.52a50.18,50.18,0,0,1-4.14-13.5q-9.51,14.88-24.85,14.88-10.89,0-18.09-6.67t-7.21-19.1V119.12a55.48,55.48,0,0,0-.61-7.82q-.62-4.29-1.3-7.21t-1.38-5.59a29,29,0,0,1-.69-3v-.62Z"/><path class="cls-1" d="M525.08,94.89v.46a28.23,28.23,0,0,0-2.3,10.89,24.77,24.77,0,0,0,2,9.66L540,151.17l14.26-35.12a23,23,0,0,0,1.68-8.74,31.41,31.41,0,0,0-2.6-12v-.46h19v.62l-2,3.37q-2,3.38-4.45,8t-4.14,8.59l-23.15,56.74h-13.8L501,117.28a122.57,122.57,0,0,0-6.75-13,101.25,101.25,0,0,0-5.67-8.9v-.46Z"/><path class="cls-1" d="M572.47,133.38q0-19,11.42-29.21T612.49,94q17.18,0,28.75,10.28t11.58,29.13q0,19-11.66,29.6t-28.67,10.73q-17,0-28.52-10.66T572.47,133.38Zm26.22,16.25a33.1,33.1,0,0,0,4.9,12.58q3.52,5.22,8.9,5.21,7.66,0,11.5-10t3.83-24.08q0-13.8-3.83-23.54t-11.5-9.73q-7.66,0-11.43,9.73t-3.75,23.54A88.34,88.34,0,0,0,598.69,149.63Z"/><path class="cls-1" d="M660.79,117.43q0-11,8.74-17.25T692.84,94a72.51,72.51,0,0,1,27.75,5.68v20.54H720a112.2,112.2,0,0,0-15.11-14.56q-7-5.37-14.18-5.37a13.81,13.81,0,0,0-7.9,2.22,7.24,7.24,0,0,0-3.3,6.37,8.29,8.29,0,0,0,4.45,7.43q4.45,2.68,14.88,6.21a5.4,5.4,0,0,1,1.07.31q13.18,4.61,18.71,10.73a21.25,21.25,0,0,1,5.52,14.72q0,12.58-9,19t-22,6.44q-13.49,0-30.36-6.59V145.65h.61c.31.41,1.43,1.58,3.38,3.52l3.83,3.69q.76.91,3.45,3.45a46.11,46.11,0,0,0,4.07,3.52q1.36,1,3.83,2.76a20.14,20.14,0,0,0,4.21,2.46,41.72,41.72,0,0,0,4,1.3,16.33,16.33,0,0,0,4.37.61,13.67,13.67,0,0,0,8.28-2.45,8.2,8.2,0,0,0,3.38-7,8.71,8.71,0,0,0-1.15-4.53,11.35,11.35,0,0,0-4.3-3.68,52,52,0,0,0-5.82-2.84q-2.68-1.07-8.67-3.21-12.72-4.6-19.09-10.74A20.08,20.08,0,0,1,660.79,117.43Z"/><path class="cls-2" d="M238.29,220.6c-.38,0-.57-.23-.57-.7V209.26L230,194.38a.56.56,0,0,1,0-.57.5.5,0,0,1,.45-.23h2.66a.75.75,0,0,1,.71.53L239,204.58l.48,1.84.48-1.84,5.19-10.43c.18-.37.41-.55.71-.55h2.68a.5.5,0,0,1,.45.24.56.56,0,0,1,0,.56l-7.75,14.86V219.9c0,.47-.19.7-.56.7Z"/><path class="cls-2" d="M258.38,221.09a9.46,9.46,0,0,1-9.65-9.61v-4.92a9.48,9.48,0,0,1,9.63-9.65,9.5,9.5,0,0,1,6.87,2.76,9.27,9.27,0,0,1,2.07,3.1,9.88,9.88,0,0,1,.74,3.79v4.92a9.67,9.67,0,0,1-.74,3.77,9.54,9.54,0,0,1-2.07,3.09A9.35,9.35,0,0,1,258.38,221.09Zm0-3.14a6,6,0,0,0,4.49-1.85,6.23,6.23,0,0,0,1.78-4.54v-5.1a6.28,6.28,0,0,0-1.8-4.59,6.4,6.4,0,0,0-8.92,0,6.25,6.25,0,0,0-1.79,4.59v5.08a6.21,6.21,0,0,0,1.79,4.58A6,6,0,0,0,258.38,218Z"/><path class="cls-2" d="M281.75,221.09a7.65,7.65,0,0,1-3.19-.7,9,9,0,0,1-2.78-2,9.48,9.48,0,0,1-2.68-6.8V198.06c0-.45.21-.68.62-.7H276c.43,0,.64.23.64.7v13.5a6.43,6.43,0,0,0,1.71,4.45,5.37,5.37,0,0,0,4.15,1.94,6.07,6.07,0,0,0,4.25-1.74,5.72,5.72,0,0,0,1.93-4.35V198.09a.64.64,0,0,1,.24-.52.77.77,0,0,1,.55-.21h2.09c.4,0,.61.25.61.73V219.9c0,.47-.21.7-.63.7H290a.76.76,0,0,1-.82-.78l-.34-3a7.69,7.69,0,0,1-7.05,4.28Z"/><path class="cls-2" d="M299.37,220.6c-.41,0-.62-.23-.62-.7V198.07c0-.46.21-.69.64-.71h1.51c.49,0,.76.26.82.79L302,201a8.84,8.84,0,0,1,2.63-2.92,6.38,6.38,0,0,1,3.64-1.15,9.82,9.82,0,0,1,2.88.44,6.24,6.24,0,0,1,1.85,1,.84.84,0,0,1,.35,1.09l-.44,1.77a.51.51,0,0,1-.45.32.79.79,0,0,1-.62-.16,6.43,6.43,0,0,0-3.94-1.28,5.48,5.48,0,0,0-3.86,1.44,5.87,5.87,0,0,0-1.81,4.55V219.9c0,.47-.24.7-.73.7Z"/><path class="cls-2" d="M328.31,220.6c-.43,0-.64-.23-.64-.7V194.27c0-.46.21-.69.64-.69H343.9a.56.56,0,0,1,.63.64v2.11c0,.41-.21.61-.63.61H331.17v8.2h10.18c.46,0,.7.21.71.63v2.07c0,.42-.24.63-.71.63H331.17v8.88h13q.66,0,.66.57v2a.58.58,0,0,1-.66.64Z"/><path class="cls-2" d="M357,221.09a8.85,8.85,0,0,1-6.64-2.75,9.5,9.5,0,0,1-2.68-6.86v-4.92a9.59,9.59,0,0,1,2.68-6.89,8.78,8.78,0,0,1,6.64-2.75,7.29,7.29,0,0,1,3.86,1.1,8.53,8.53,0,0,1,2.73,2.86v-9.57a.65.65,0,0,1,.23-.52.82.82,0,0,1,.57-.2h2c.42,0,.64.24.64.72V219.9c0,.47-.21.7-.63.7h-1.51a.67.67,0,0,1-.72-.7l-.25-3.23a8.5,8.5,0,0,1-2.79,3.16A7.09,7.09,0,0,1,357,221.09Zm.25-3.14a6,6,0,0,0,4.5-1.85,6.21,6.21,0,0,0,1.84-4.54v-5.1a6.24,6.24,0,0,0-6.34-6.4,5.91,5.91,0,0,0-4.38,1.82,6.28,6.28,0,0,0-1.78,4.58v5.08a6.27,6.27,0,0,0,1.78,4.59A5.91,5.91,0,0,0,357.28,218Z"/><path class="cls-2" d="M382.1,221.09a7.62,7.62,0,0,1-3.19-.7,8.9,8.9,0,0,1-2.78-2,9.44,9.44,0,0,1-2.68-6.8V198.06c0-.45.2-.68.62-.7h2.24c.42,0,.64.23.64.7v13.5a6.42,6.42,0,0,0,1.7,4.45,5.39,5.39,0,0,0,4.16,1.94,6,6,0,0,0,4.24-1.74,5.73,5.73,0,0,0,1.94-4.35V198.09a.67.67,0,0,1,.23-.52.79.79,0,0,1,.55-.21h2.1c.4,0,.6.25.6.73V219.9c0,.47-.21.7-.62.7H390.3a.76.76,0,0,1-.81-.78l-.34-3a7.89,7.89,0,0,1-2.79,3.09A7.77,7.77,0,0,1,382.1,221.09Z"/><path class="cls-2" d="M407.36,221.09a9.76,9.76,0,0,1-3.74-.71,9,9,0,0,1-3.09-2,9.35,9.35,0,0,1-2.8-7v-4.76a9.9,9.9,0,0,1,.74-3.86,9.52,9.52,0,0,1,2.06-3.13,9.26,9.26,0,0,1,6.84-2.73,8.72,8.72,0,0,1,7.36,4.26c.23.4.22.69,0,.87l-1.83.91c-.26.18-.5.08-.73-.29a5.8,5.8,0,0,0-2.06-1.9,5.46,5.46,0,0,0-2.68-.71,6,6,0,0,0-4.47,1.84,6.59,6.59,0,0,0-1.78,4.79v4.62a6.69,6.69,0,0,0,1.79,4.83,6,6,0,0,0,4.46,1.81,5.51,5.51,0,0,0,2.67-.69,5.84,5.84,0,0,0,2.09-2c.21-.34.46-.42.73-.23l1.81.91c.24.21.25.5,0,.85a8,8,0,0,1-3.06,3.07A8.32,8.32,0,0,1,407.36,221.09Z"/><path class="cls-2" d="M428,221.09a8.83,8.83,0,0,1-6.64-2.75,9.51,9.51,0,0,1-2.69-6.86v-4.92a9.6,9.6,0,0,1,2.69-6.89,8.76,8.76,0,0,1,6.64-2.75,7.26,7.26,0,0,1,4.07,1.23,8.8,8.8,0,0,1,2.77,3.16l.28-3.24a.72.72,0,0,1,.77-.69h1.45c.43,0,.64.24.64.71V219.9c0,.47-.21.7-.62.7h-1.51a.67.67,0,0,1-.73-.7l-.25-3.23a8.5,8.5,0,0,1-2.79,3.16A7.08,7.08,0,0,1,428,221.09Zm.25-3.14a5.93,5.93,0,0,0,4.49-1.85,6.22,6.22,0,0,0,1.85-4.54v-5.1a6.2,6.2,0,0,0-1.85-4.59,6.12,6.12,0,0,0-4.49-1.81,5.91,5.91,0,0,0-4.38,1.82,6.29,6.29,0,0,0-1.79,4.58v5.08a6.28,6.28,0,0,0,1.79,4.59A5.91,5.91,0,0,0,428.23,218Z"/><path class="cls-2" d="M446.17,220.6c-.4,0-.61-.23-.61-.68V200.65H442.7a.55.55,0,0,1-.63-.62V198a.57.57,0,0,1,.17-.44.71.71,0,0,1,.46-.15h2.86v-4a.73.73,0,0,1,.64-.78l2-.66a.72.72,0,0,1,.62.14.79.79,0,0,1,.25.64v4.67h4.05a.72.72,0,0,1,.47.16.58.58,0,0,1,.17.43V200a.56.56,0,0,1-.64.62h-4.05v19.27c0,.45-.2.68-.6.68Z"/><path class="cls-2" d="M458.57,194.75c-.57,0-.86-.26-.86-.8v-2.09a.75.75,0,0,1,.84-.86h2.27q.78,0,.78.87V194a.7.7,0,0,1-.78.8Zm0,25.85c-.43,0-.64-.23-.64-.7V198a.67.67,0,0,1,.18-.49.59.59,0,0,1,.46-.19h2.24a.56.56,0,0,1,.45.2.74.74,0,0,1,.17.5V219.9c0,.47-.21.7-.62.7Z"/><path class="cls-2" d="M476.31,221.09a9.46,9.46,0,0,1-9.64-9.61v-4.92a9.48,9.48,0,0,1,9.63-9.65,9.5,9.5,0,0,1,6.87,2.76,9.27,9.27,0,0,1,2.07,3.1,9.88,9.88,0,0,1,.74,3.79v4.92a9.67,9.67,0,0,1-.74,3.77,9.54,9.54,0,0,1-2.07,3.09A9.37,9.37,0,0,1,476.31,221.09Zm0-3.14a6,6,0,0,0,4.5-1.85,6.22,6.22,0,0,0,1.77-4.54v-5.1a6.27,6.27,0,0,0-1.79-4.59,6.4,6.4,0,0,0-8.92,0,6.25,6.25,0,0,0-1.79,4.59v5.08a6.21,6.21,0,0,0,1.79,4.58A6,6,0,0,0,476.31,218Z"/><path class="cls-2" d="M491.86,220.6c-.42,0-.63-.23-.63-.7V198.07a.62.62,0,0,1,.64-.71h1.53c.45,0,.72.26.82.79l.32,3a8,8,0,0,1,2.8-3.09,7.87,7.87,0,0,1,4.27-1.19,7.65,7.65,0,0,1,3.19.7,9.12,9.12,0,0,1,2.76,1.95,9.57,9.57,0,0,1,2.7,6.8v13.55c0,.45-.21.68-.62.68H507.4c-.42,0-.63-.23-.64-.68V206.44a6.48,6.48,0,0,0-1.71-4.48,5.32,5.32,0,0,0-4.14-1.9,5.89,5.89,0,0,0-4.24,1.74,5.8,5.8,0,0,0-1.94,4.36V219.9a.6.6,0,0,1-.24.51.87.87,0,0,1-.57.19Z"/><path class="cls-2" d="M516.26,220.6a.52.52,0,0,1-.35-.14.5.5,0,0,1-.16-.43v-2.59a.6.6,0,0,1,.15-.44.54.54,0,0,1,.4-.15h2.82q.57,0,.57.6V220a.57.57,0,0,1-.17.44.53.53,0,0,1-.36.15Z"/><path class="cls-2" d="M540,220.6c-.38,0-.57-.23-.57-.7V209.26l-7.71-14.88a.56.56,0,0,1,0-.57.51.51,0,0,1,.45-.23h2.66a.75.75,0,0,1,.71.53l5.22,10.47.48,1.84.48-1.84,5.19-10.43a.81.81,0,0,1,.71-.55h2.68a.5.5,0,0,1,.45.24.56.56,0,0,1,0,.56l-7.75,14.86V219.9c0,.47-.19.7-.56.7Z"/><path class="cls-2" d="M560.07,221.09a9.46,9.46,0,0,1-9.65-9.61v-4.92a9.48,9.48,0,0,1,9.63-9.65,9.5,9.5,0,0,1,6.87,2.76,9.27,9.27,0,0,1,2.07,3.1,9.88,9.88,0,0,1,.74,3.79v4.92a9.67,9.67,0,0,1-.74,3.77,9.54,9.54,0,0,1-2.07,3.09A9.35,9.35,0,0,1,560.07,221.09Zm0-3.14a6,6,0,0,0,4.49-1.85,6.19,6.19,0,0,0,1.78-4.54v-5.1a6.28,6.28,0,0,0-1.8-4.59,6.39,6.39,0,0,0-8.91,0,6.22,6.22,0,0,0-1.8,4.59v5.08a6.18,6.18,0,0,0,1.8,4.58A6,6,0,0,0,560.07,218Z"/><path class="cls-2" d="M583.44,221.09a7.65,7.65,0,0,1-3.19-.7,9,9,0,0,1-2.78-2,9.48,9.48,0,0,1-2.68-6.8V198.06c0-.45.21-.68.62-.7h2.24c.43,0,.64.23.64.7v13.5A6.43,6.43,0,0,0,580,216a5.37,5.37,0,0,0,4.15,1.94,6.05,6.05,0,0,0,4.25-1.74,5.73,5.73,0,0,0,1.94-4.35V198.09a.64.64,0,0,1,.23-.52.77.77,0,0,1,.55-.21h2.09c.41,0,.61.25.61.73V219.9c0,.47-.21.7-.63.7h-1.54a.76.76,0,0,1-.82-.78l-.33-3a7.89,7.89,0,0,1-2.79,3.09A7.78,7.78,0,0,1,583.44,221.09Z"/><path class="cls-2" d="M601.06,220.6c-.41,0-.62-.23-.62-.7V198.07a.62.62,0,0,1,.64-.71h1.51c.49,0,.76.26.82.79l.3,2.84a8.84,8.84,0,0,1,2.63-2.92,6.38,6.38,0,0,1,3.64-1.15,9.82,9.82,0,0,1,2.88.44,6.24,6.24,0,0,1,1.85,1,.84.84,0,0,1,.35,1.09l-.44,1.77a.51.51,0,0,1-.45.32.79.79,0,0,1-.62-.16,6.41,6.41,0,0,0-3.94-1.28,5.5,5.5,0,0,0-3.86,1.44,5.9,5.9,0,0,0-1.81,4.55V219.9c0,.47-.24.7-.73.7Z"/><path class="cls-2" d="M630,220.6c-.43,0-.64-.23-.64-.7V194.27c0-.46.21-.69.64-.69h15.28c.42,0,.64.2.64.6v2.14a.56.56,0,0,1-.64.62H632.86v8.58h9.88c.46,0,.7.2.71.62v2.08c0,.41-.24.62-.71.64h-9.88v11c0,.47-.2.7-.6.7Z"/><path class="cls-2" d="M656.66,221.09a7.65,7.65,0,0,1-3.19-.7,8.86,8.86,0,0,1-2.77-2,9.45,9.45,0,0,1-2.69-6.8V198.06c0-.45.21-.68.62-.7h2.24c.43,0,.64.23.64.7v13.5a6.43,6.43,0,0,0,1.71,4.45,5.37,5.37,0,0,0,4.15,1.94,6.05,6.05,0,0,0,4.25-1.74,5.73,5.73,0,0,0,1.94-4.35V198.09a.64.64,0,0,1,.23-.52.77.77,0,0,1,.55-.21h2.09c.41,0,.61.25.61.73V219.9c0,.47-.21.7-.62.7h-1.55a.76.76,0,0,1-.82-.78l-.33-3a7.89,7.89,0,0,1-2.79,3.09A7.78,7.78,0,0,1,656.66,221.09Z"/><path class="cls-2" d="M675.24,220.6c-.4,0-.6-.23-.6-.68V200.65h-2.86a.56.56,0,0,1-.64-.62V198a.54.54,0,0,1,.18-.44.69.69,0,0,1,.46-.15h2.86v-4a.72.72,0,0,1,.64-.78l2-.66a.69.69,0,0,1,.61.14.79.79,0,0,1,.26.64v4.67h4.05a.69.69,0,0,1,.46.16.55.55,0,0,1,.18.43V200a.56.56,0,0,1-.64.62h-4.05v19.27c0,.45-.2.68-.6.68Z"/><path class="cls-2" d="M695.44,221.09a7.65,7.65,0,0,1-3.19-.7,9,9,0,0,1-2.78-2,9.44,9.44,0,0,1-2.68-6.8V198.06c0-.45.21-.68.62-.7h2.24c.43,0,.64.23.64.7v13.5A6.47,6.47,0,0,0,692,216a5.4,5.4,0,0,0,4.16,1.94,6.07,6.07,0,0,0,4.25-1.74,5.72,5.72,0,0,0,1.93-4.35V198.09a.67.67,0,0,1,.23-.52.81.81,0,0,1,.55-.21h2.1c.4,0,.6.25.6.73V219.9c0,.47-.2.7-.62.7h-1.54a.76.76,0,0,1-.82-.78l-.34-3a7.71,7.71,0,0,1-7,4.28Z"/><path class="cls-2" d="M713.06,220.6c-.41,0-.62-.23-.62-.7V198.07c0-.46.21-.69.64-.71h1.51a.77.77,0,0,1,.82.79l.3,2.84a8.74,8.74,0,0,1,2.63-2.92,6.35,6.35,0,0,1,3.64-1.15,9.82,9.82,0,0,1,2.88.44,6.07,6.07,0,0,1,1.84,1,.83.83,0,0,1,.36,1.09l-.45,1.77a.5.5,0,0,1-.44.32.79.79,0,0,1-.62-.16,6.43,6.43,0,0,0-3.94-1.28,5.48,5.48,0,0,0-3.86,1.44,5.87,5.87,0,0,0-1.81,4.55V219.9c0,.47-.24.7-.73.7Z"/><path class="cls-2" d="M738.84,221.09a10.54,10.54,0,0,1-3.86-.7,9.42,9.42,0,0,1-6.06-9v-4.76a9.44,9.44,0,0,1,2.85-7,9.55,9.55,0,0,1,7-2.72,8.6,8.6,0,0,1,3.33.66,8.16,8.16,0,0,1,2.82,1.93,10.37,10.37,0,0,1,2.73,7.52v1.86c0,.76-.39,1.1-1.19,1h-.32a.72.72,0,0,1-.21,0H732.34v1.42a6.37,6.37,0,0,0,1.9,4.78,6.21,6.21,0,0,0,4.49,1.79,5.59,5.59,0,0,0,4.83-2.54c.25-.34.49-.43.73-.25l1.92,1c.23.21.24.5,0,.87a9,9,0,0,1-3.06,2.91A8.59,8.59,0,0,1,738.84,221.09Zm-6.5-13.8h12.13v-.62a7.31,7.31,0,0,0-1.39-4.51,5.09,5.09,0,0,0-4.35-2.1,6.11,6.11,0,0,0-4.62,1.9,6.51,6.51,0,0,0-1.77,4.62Z"/><path class="cls-2" d="M751,220.6a.54.54,0,0,1-.35-.14.5.5,0,0,1-.16-.43v-2.59a.6.6,0,0,1,.15-.44.54.54,0,0,1,.4-.15h2.82q.57,0,.57.6V220a.54.54,0,0,1-.17.44.53.53,0,0,1-.36.15Z"/><path class="cls-1" d="M82.48,0A21.63,21.63,0,1,0,104.1,21.62,21.65,21.65,0,0,0,82.48,0Zm0,35.3A13.67,13.67,0,1,1,96.14,21.63,13.7,13.7,0,0,1,82.48,35.3Z"/><path class="cls-1" d="M0,176.27v4.88a96.63,96.63,0,0,0,16.05,53.73l58.62-58.61Z"/><path class="cls-1" d="M22.23,243.13c.24.31.5.61.76.92a101.21,101.21,0,0,0,24.36,20.78l4.4-4.4L56.2,256l26.16-26.17L108.52,256l4.44,4.44,4.4,4.4a101.06,101.06,0,0,0,24.37-20.78c.26-.31.52-.61.75-.92L82.36,183Z"/><path class="cls-1" d="M82.36,166.08H164.7l0-114.86h-12A10.66,10.66,0,0,1,142,61.88H98.37c-.38,0-.76,0-1.13,0A21.67,21.67,0,0,0,82.36,68.8a21.69,21.69,0,0,0-14.88-6.89c-.37,0-.75,0-1.13,0H22.69A10.66,10.66,0,0,1,12,51.22H0L0,166.08Zm49.35-86a14.78,14.78,0,0,0,14.78,14.78,14.78,14.78,0,0,0-14.78,14.77,14.78,14.78,0,0,0-14.79-14.77A14.79,14.79,0,0,0,131.71,80.1ZM82.36,94.43a29.45,29.45,0,0,0,29.46,29.44,29.46,29.46,0,0,0-29.46,29.46A29.46,29.46,0,0,0,52.9,123.87,29.45,29.45,0,0,0,82.36,94.43ZM33,80.1A14.79,14.79,0,0,0,47.8,94.88,14.78,14.78,0,0,0,33,109.65,14.78,14.78,0,0,0,18.23,94.88,14.78,14.78,0,0,0,33,80.1Z"/><path class="cls-1" d="M148.64,234.88a96.64,96.64,0,0,0,16.06-53.73v-4.88H90Z"/><path class="cls-1" d="M82.36,244.24,65.78,260.81l-9.11,9.11A114.62,114.62,0,0,0,81,278.42l1.36.31,1.35-.31a114.51,114.51,0,0,0,24.34-8.5l-9.12-9.11Z"/></svg>